<svg width="64" height="64" viewBox="0 0 64 64" fill="none" xmlns="http://www.w3.org/2000/svg">
<rect x="4" y="4" width="56" height="56" rx="28" fill="#FFEBF3"/>
<path d="M29.7808 23.8908C30.3447 23.4102 30.6266 23.17 30.9214 23.0291C31.6032 22.7032 32.3958 22.7032 33.0776 23.0291C33.3724 23.17 33.6543 23.4102 34.2182 23.8908C34.4426 24.082 34.5548 24.1776 34.6747 24.258C34.9494 24.4421 35.2579 24.5699 35.5824 24.6339C35.7239 24.6619 35.8709 24.6736 36.1648 24.6971C36.9033 24.756 37.2725 24.7855 37.5806 24.8943C38.2931 25.1459 38.8536 25.7064 39.1053 26.4189C39.2141 26.727 39.2435 27.0962 39.3025 27.8348C39.3259 28.1287 39.3377 28.2756 39.3656 28.4172C39.4297 28.7416 39.5574 29.0501 39.7416 29.3249C39.8219 29.4447 39.9175 29.5569 40.1088 29.7813C40.5893 30.3452 40.8296 30.6271 40.9705 30.9219C41.2963 31.6037 41.2963 32.3963 40.9705 33.0781C40.8296 33.3729 40.5893 33.6548 40.1088 34.2187C39.9175 34.4431 39.8219 34.5553 39.7416 34.6752C39.5574 34.9499 39.4297 35.2584 39.3656 35.5828C39.3377 35.7244 39.3259 35.8713 39.3025 36.1653C39.2435 36.9038 39.2141 37.273 39.1053 37.5811C38.8536 38.2936 38.2931 38.8541 37.5806 39.1058C37.2725 39.2146 36.9033 39.244 36.1648 39.303C35.8709 39.3264 35.7239 39.3381 35.5824 39.3661C35.2579 39.4301 34.9494 39.5579 34.6747 39.7421C34.5548 39.8224 34.4426 39.918 34.2182 40.1093C33.6543 40.5898 33.3724 40.8301 33.0776 40.971C32.3958 41.2968 31.6032 41.2968 30.9214 40.971C30.6267 40.8301 30.3447 40.5898 29.7808 40.1093C29.5564 39.918 29.4442 39.8224 29.3244 39.7421C29.0497 39.5579 28.7411 39.4301 28.4167 39.3661C28.2752 39.3381 28.1282 39.3264 27.8343 39.303C27.0958 39.244 26.7265 39.2146 26.4184 39.1058C25.7059 38.8541 25.1455 38.2936 24.8938 37.5811C24.785 37.273 24.7555 36.9038 24.6966 36.1653C24.6731 35.8713 24.6614 35.7244 24.6334 35.5828C24.5694 35.2584 24.4416 34.9499 24.2575 34.6752C24.1771 34.5553 24.0815 34.4431 23.8903 34.2187C23.4097 33.6548 23.1695 33.3729 23.0286 33.0781C22.7027 32.3963 22.7027 31.6037 23.0286 30.9219C23.1695 30.6271 23.4097 30.3452 23.8903 29.7813C24.0815 29.5569 24.1771 29.4447 24.2575 29.3249C24.4416 29.0501 24.5694 28.7416 24.6334 28.4172C24.6614 28.2756 24.6731 28.1287 24.6966 27.8348C24.7555 27.0962 24.785 26.727 24.8938 26.4189C25.1455 25.7064 25.7059 25.1459 26.4184 24.8943C26.7265 24.7855 27.0958 24.756 27.8343 24.6971C28.1282 24.6736 28.2752 24.6619 28.4167 24.6339C28.7411 24.5699 29.0497 24.4421 29.3244 24.258C29.4442 24.1776 29.5564 24.082 29.7808 23.8908Z" stroke="#EE2A7B" stroke-width="1.5"/>
<path d="M29 35L35 29" stroke="#EE2A7B" stroke-width="1.5" stroke-linecap="round"/>
<path d="M35.5 34.5C35.5 35.0523 35.0523 35.5 34.5 35.5C33.9477 35.5 33.5 35.0523 33.5 34.5C33.5 33.9477 33.9477 33.5 34.5 33.5C35.0523 33.5 35.5 33.9477 35.5 34.5Z" fill="#EE2A7B"/>
<path d="M30.5 29.5C30.5 30.0523 30.0523 30.5 29.5 30.5C28.9477 30.5 28.5 30.0523 28.5 29.5C28.5 28.9477 28.9477 28.5 29.5 28.5C30.0523 28.5 30.5 28.9477 30.5 29.5Z" fill="#EE2A7B"/>
<rect x="4" y="4" width="56" height="56" rx="28" stroke="#FFF5F9" stroke-width="8"/>
</svg>
