<svg width="64" height="64" viewBox="0 0 64 64" fill="none" xmlns="http://www.w3.org/2000/svg">
<rect x="4" y="4" width="56" height="56" rx="28" fill="#FFEBF3"/>
<circle cx="32" cy="32" r="10" stroke="#EE2A7B" stroke-width="1.5"/>
<path d="M26 24.7105C26.7802 25.4211 28.3875 27.3632 28.5748 29.4474C28.7498 31.3955 30.0357 32.9786 32 33C32.7549 33.0082 33.5183 32.4629 33.5164 31.708C33.5158 31.4745 33.4773 31.2358 33.417 31.0163C33.3331 30.7108 33.3257 30.3595 33.5 30C34.1099 28.7425 35.3094 28.4048 36.2599 27.7219C36.6814 27.419 37.0659 27.0995 37.2355 26.8421C37.7037 26.1316 38.1718 24.7105 37.9377 24" stroke="#EE2A7B" stroke-width="1.5"/>
<path d="M42 33C41.6706 33.931 41.4375 36.375 37.7182 36.4138C37.7182 36.4138 34.4246 36.4138 33.4365 38.2759C32.646 39.7655 33.1071 41.3793 33.4365 42" stroke="#EE2A7B" stroke-width="1.5"/>
<rect x="4" y="4" width="56" height="56" rx="28" stroke="#FFF5F9" stroke-width="8"/>
</svg>
